<?xml version="1.0" encoding="utf-8"?>
<!-- Generator: Adobe Illustrator 25.0.1, SVG Export Plug-In . SVG Version: 6.00 Build 0)  -->
<svg version="1.0" id="Layer_1" xmlns="http://www.w3.org/2000/svg" xmlns:xlink="http://www.w3.org/1999/xlink" x="0px" y="0px"
	 viewBox="0 0 304 228" style="enable-background:new 0 0 304 228;" xml:space="preserve">
<style type="text/css">
	.st0{fill:#E7E3C7;}
	.st1{fill:#6C3F18;}
</style>
<path class="st0" d="M152,34.3L152,34.3c44,0,79.7,35.7,79.7,79.7v0c0,44-35.7,79.7-79.7,79.7h0c-44,0-79.7-35.7-79.7-79.7v0
	C72.3,70,108,34.3,152,34.3z"/>
<path class="st1" d="M152.1,89.6c-3.7-0.1-7.2,1.5-9.6,4.4c-2.5,3.1-3.8,7.5-3.8,12.3s1.2,9,3.6,12c2.2,2.8,5.6,4.3,9.2,4.2
	c3.7,0.1,7.3-1.5,9.8-4.3c2.5-2.9,3.9-7.2,3.9-11.9V106l0,0c0.1-4.1-1.1-8.1-3.4-11.5c-2.2-3.1-5.7-5-9.5-5L152.1,89.6L152.1,89.6z
	 M165.2,120.1c-0.9,1.1-1.9,2.1-3.1,3c-3,2.3-6.7,3.5-10.5,3.5c-4.8,0.2-9.4-1.9-12.5-5.6c-3.1-3.8-4.7-9.1-4.7-14.8
	c0-5.9,1.6-11.3,4.8-15.1c5.8-6.8,15.9-7.8,22.9-2.3c1.1,0.9,2.1,2,3,3.2v-5.5h4.3v38.9c0,5.7-1.6,9.9-4.4,12.8
	c-3,3-7.3,4.5-12.8,4.5c-4.4,0-8.5-1.1-11.4-3.7c-2.6-2.3-4.3-5.6-4.4-10.2l0,0h4.3v0.1c0,2.7,1.1,5.2,3.1,7
	c2.1,1.8,5.1,2.6,8.4,2.6c4.3,0,7.6-1,9.7-3.2s3.2-5.4,3.2-9.8L165.2,120.1L165.2,120.1z"/>
</svg>
